<?xml version="1.0" encoding="UTF-8" standalone="no"?>
<!DOCTYPE svg PUBLIC "-//W3C//DTD SVG 1.1//EN"
 "http://www.w3.org/Graphics/SVG/1.1/DTD/svg11.dtd">
<!-- Generated by graphviz version 2.43.0 (0)
 -->
<!-- Title: %3 Pages: 1 -->
<svg width="1437pt" height="479pt"
 viewBox="0.00 0.00 1437.49 479.00" xmlns="http://www.w3.org/2000/svg" xmlns:xlink="http://www.w3.org/1999/xlink">
<g id="graph0" class="graph" transform="scale(1 1) rotate(0) translate(4 475)">
<title>%3</title>
<polygon fill="white" stroke="transparent" points="-4,4 -4,-475 1433.49,-475 1433.49,4 -4,4"/>
<!-- BjornTore -->
<g id="node1" class="node">
<title>BjornTore</title>
<g id="a_node1"><a xlink:href="http://example.org/owl-client-relationship#EMMO_71f7ecb6-a711-5787-b5ec-d764eaed71e8" xlink:title="BjornTore">
<ellipse fill="#ffffcc" stroke="black" cx="1372.94" cy="-18" rx="56.59" ry="18"/>
<text text-anchor="middle" x="1372.94" y="-14.3" font-family="Times,serif" font-size="14.00">BjornTore</text>
</a>
</g>
</g>
<!-- SINTEFIndustryPerson -->
<g id="node9" class="node">
<title>SINTEFIndustryPerson</title>
<g id="a_node9"><a xlink:href="http://example.org/owl-client-relationship#EMMO_b36d2d3b-e9b0-5909-9a8d-40fd3a1efaa1" xlink:title="SINTEFIndustryPerson">
<ellipse fill="#ffffcc" stroke="black" cx="1154.94" cy="-105" rx="118.08" ry="18"/>
<text text-anchor="middle" x="1154.94" y="-101.3" font-family="Times,serif" font-size="14.00">SINTEFIndustryPerson</text>
</a>
</g>
</g>
<!-- BjornTore&#45;&gt;SINTEFIndustryPerson -->
<g id="edge2" class="edge">
<title>BjornTore&#45;&gt;SINTEFIndustryPerson</title>
<path fill="none" stroke="black" d="M1338.4,-32.47C1302.61,-46.42 1246.31,-68.38 1205.51,-84.28"/>
<polygon fill="none" stroke="black" points="1204.06,-81.09 1196.01,-87.99 1206.6,-87.61 1204.06,-81.09"/>
<text text-anchor="middle" x="1287.94" y="-57.8" font-family="Times,serif" font-size="14.00">isA</text>
</g>
<!-- Petter -->
<g id="node2" class="node">
<title>Petter</title>
<g id="a_node2"><a xlink:href="http://example.org/owl-client-relationship#EMMO_f26059cd-fb61-537c-a625-2c8338367424" xlink:title="Petter">
<ellipse fill="#ffffcc" stroke="black" cx="806.94" cy="-18" rx="39.79" ry="18"/>
<text text-anchor="middle" x="806.94" y="-14.3" font-family="Times,serif" font-size="14.00">Petter</text>
</a>
</g>
</g>
<!-- SINTEFOceanPerson -->
<g id="node13" class="node">
<title>SINTEFOceanPerson</title>
<g id="a_node13"><a xlink:href="http://example.org/owl-client-relationship#EMMO_dcafb1c6-5b23-5850-a9e3-838e73b395e3" xlink:title="SINTEFOceanPerson">
<ellipse fill="#ffffcc" stroke="black" cx="817.94" cy="-105" rx="107.78" ry="18"/>
<text text-anchor="middle" x="817.94" y="-101.3" font-family="Times,serif" font-size="14.00">SINTEFOceanPerson</text>
</a>
</g>
</g>
<!-- Petter&#45;&gt;SINTEFOceanPerson -->
<g id="edge14" class="edge">
<title>Petter&#45;&gt;SINTEFOceanPerson</title>
<path fill="none" stroke="black" d="M809.17,-36.2C810.67,-47.84 812.7,-63.45 814.42,-76.76"/>
<polygon fill="none" stroke="black" points="810.97,-77.36 815.72,-86.82 817.91,-76.46 810.97,-77.36"/>
<text text-anchor="middle" x="824.94" y="-57.8" font-family="Times,serif" font-size="14.00">isA</text>
</g>
<!-- Person -->
<g id="node3" class="node">
<title>Person</title>
<g id="a_node3"><a xlink:href="http://example.org/owl-client-relationship#EMMO_3b652611-f435-5b44-88dd-9d3337e4e5a3" xlink:title="Person">
<ellipse fill="#ffffcc" stroke="black" stroke-width="2" cx="883.94" cy="-279" rx="42.49" ry="18"/>
<text text-anchor="middle" x="883.94" y="-275.3" font-family="Times,serif" font-size="14.00">Person</text>
</a>
</g>
</g>
<!-- Interpreter -->
<g id="node15" class="node">
<title>Interpreter</title>
<g id="a_node15"><a xlink:href="https://w3id.org/emmo#EMMO_0527413c_b286_4e9c_b2d0_03fb2a038dee" xlink:title="Interpreter">
<ellipse fill="#ffffcc" stroke="red" cx="883.94" cy="-366" rx="63.09" ry="18"/>
<text text-anchor="middle" x="883.94" y="-362.3" font-family="Times,serif" font-size="14.00">Interpreter</text>
</a>
</g>
</g>
<!-- Person&#45;&gt;Interpreter -->
<g id="edge7" class="edge">
<title>Person&#45;&gt;Interpreter</title>
<path fill="none" stroke="black" d="M883.94,-297.2C883.94,-308.84 883.94,-324.45 883.94,-337.76"/>
<polygon fill="none" stroke="black" points="880.44,-337.82 883.94,-347.82 887.44,-337.82 880.44,-337.82"/>
<text text-anchor="middle" x="894.94" y="-318.8" font-family="Times,serif" font-size="14.00">isA</text>
</g>
<!-- Thomas -->
<g id="node4" class="node">
<title>Thomas</title>
<g id="a_node4"><a xlink:href="http://example.org/owl-client-relationship#EMMO_e9a892e3-4212-52b1-98da-b91c2a32c965" xlink:title="Thomas">
<ellipse fill="#ffffcc" stroke="black" cx="910.94" cy="-18" rx="46.59" ry="18"/>
<text text-anchor="middle" x="910.94" y="-14.3" font-family="Times,serif" font-size="14.00">Thomas</text>
</a>
</g>
</g>
<!-- Thomas&#45;&gt;SINTEFOceanPerson -->
<g id="edge4" class="edge">
<title>Thomas&#45;&gt;SINTEFOceanPerson</title>
<path fill="none" stroke="black" d="M893.45,-34.99C879.43,-47.8 859.56,-65.96 843.72,-80.44"/>
<polygon fill="none" stroke="black" points="841.33,-77.88 836.31,-87.21 846.05,-83.05 841.33,-77.88"/>
<text text-anchor="middle" x="881.94" y="-57.8" font-family="Times,serif" font-size="14.00">isA</text>
</g>
<!-- Consultant -->
<g id="node5" class="node">
<title>Consultant</title>
<g id="a_node5"><a xlink:href="http://example.org/owl-client-relationship#EMMO_4b473939-6d2a-5342-a4da-4218c05009cb" xlink:title="Consultant">
<ellipse fill="#ffffcc" stroke="black" cx="1142.94" cy="-192" rx="61.99" ry="18"/>
<text text-anchor="middle" x="1142.94" y="-188.3" font-family="Times,serif" font-size="14.00">Consultant</text>
</a>
</g>
</g>
<!-- Consultant&#45;&gt;Person -->
<g id="edge12" class="edge">
<title>Consultant&#45;&gt;Person</title>
<path fill="none" stroke="black" d="M1103.61,-205.91C1055.68,-221.64 975.05,-248.1 925.95,-264.22"/>
<polygon fill="none" stroke="black" points="924.68,-260.95 916.27,-267.39 926.86,-267.6 924.68,-260.95"/>
<text text-anchor="middle" x="1040.94" y="-231.8" font-family="Times,serif" font-size="14.00">isA</text>
</g>
<!-- SINTEFPerson -->
<g id="node6" class="node">
<title>SINTEFPerson</title>
<g id="a_node6"><a xlink:href="http://example.org/owl-client-relationship#EMMO_7e775797-9967-5bee-9698-f87a965d118e" xlink:title="SINTEFPerson">
<ellipse fill="#ffffcc" stroke="black" cx="983.94" cy="-192" rx="79.09" ry="18"/>
<text text-anchor="middle" x="983.94" y="-188.3" font-family="Times,serif" font-size="14.00">SINTEFPerson</text>
</a>
</g>
</g>
<!-- SINTEFPerson&#45;&gt;Person -->
<g id="edge6" class="edge">
<title>SINTEFPerson&#45;&gt;Person</title>
<path fill="none" stroke="black" d="M964.19,-209.79C948.63,-223.02 926.82,-241.55 909.86,-255.97"/>
<polygon fill="none" stroke="black" points="907.33,-253.53 901.98,-262.67 911.86,-258.86 907.33,-253.53"/>
<text text-anchor="middle" x="950.94" y="-231.8" font-family="Times,serif" font-size="14.00">isA</text>
</g>
<!-- Francesca -->
<g id="node7" class="node">
<title>Francesca</title>
<g id="a_node7"><a xlink:href="http://example.org/owl-client-relationship#EMMO_39c5d034-c6b5-572c-9a79-4eb0e332e7fb" xlink:title="Francesca">
<ellipse fill="#ffffcc" stroke="black" cx="1033.94" cy="-18" rx="57.69" ry="18"/>
<text text-anchor="middle" x="1033.94" y="-14.3" font-family="Times,serif" font-size="14.00">Francesca</text>
</a>
</g>
</g>
<!-- Francesca&#45;&gt;SINTEFIndustryPerson -->
<g id="edge9" class="edge">
<title>Francesca&#45;&gt;SINTEFIndustryPerson</title>
<path fill="none" stroke="black" d="M1056.42,-34.79C1075.04,-47.87 1101.74,-66.63 1122.65,-81.32"/>
<polygon fill="none" stroke="black" points="1120.74,-84.25 1130.93,-87.13 1124.76,-78.52 1120.74,-84.25"/>
<text text-anchor="middle" x="1112.94" y="-57.8" font-family="Times,serif" font-size="14.00">isA</text>
</g>
<!-- ClientManager -->
<g id="node8" class="node">
<title>ClientManager</title>
<g id="a_node8"><a xlink:href="http://example.org/owl-client-relationship#EMMO_0faf89e8-8210-5c7a-b85c-b2d51e896b76" xlink:title="ClientManager">
<ellipse fill="#ffffcc" stroke="black" cx="79.94" cy="-192" rx="79.89" ry="18"/>
<text text-anchor="middle" x="79.94" y="-188.3" font-family="Times,serif" font-size="14.00">ClientManager</text>
</a>
</g>
</g>
<!-- ClientManager&#45;&gt;Person -->
<g id="edge11" class="edge">
<title>ClientManager&#45;&gt;Person</title>
<path fill="none" stroke="black" d="M127.29,-206.58C170.16,-218.28 235.25,-234.58 292.94,-243 490.1,-271.76 727.53,-277.03 831.21,-277.9"/>
<polygon fill="none" stroke="black" points="831.38,-281.4 841.41,-277.97 831.43,-274.4 831.38,-281.4"/>
<text text-anchor="middle" x="303.94" y="-231.8" font-family="Times,serif" font-size="14.00">isA</text>
</g>
<!-- SINTEFIndustryPerson&#45;&gt;SINTEFPerson -->
<g id="edge8" class="edge">
<title>SINTEFIndustryPerson&#45;&gt;SINTEFPerson</title>
<path fill="none" stroke="black" d="M1121.97,-122.39C1094.21,-136.19 1054.39,-155.98 1024.64,-170.77"/>
<polygon fill="none" stroke="black" points="1022.77,-167.79 1015.37,-175.38 1025.88,-174.06 1022.77,-167.79"/>
<text text-anchor="middle" x="1090.94" y="-144.8" font-family="Times,serif" font-size="14.00">isA</text>
</g>
<!-- Sylvain -->
<g id="node10" class="node">
<title>Sylvain</title>
<g id="a_node10"><a xlink:href="http://example.org/owl-client-relationship#EMMO_dbca868b-e8ec-5b26-8929-e319db1c534f" xlink:title="Sylvain">
<ellipse fill="#ffffcc" stroke="black" cx="1154.94" cy="-18" rx="44.69" ry="18"/>
<text text-anchor="middle" x="1154.94" y="-14.3" font-family="Times,serif" font-size="14.00">Sylvain</text>
</a>
</g>
</g>
<!-- Sylvain&#45;&gt;SINTEFIndustryPerson -->
<g id="edge13" class="edge">
<title>Sylvain&#45;&gt;SINTEFIndustryPerson</title>
<path fill="none" stroke="black" d="M1154.94,-36.2C1154.94,-47.84 1154.94,-63.45 1154.94,-76.76"/>
<polygon fill="none" stroke="black" points="1151.44,-76.82 1154.94,-86.82 1158.44,-76.82 1151.44,-76.82"/>
<text text-anchor="middle" x="1165.94" y="-57.8" font-family="Times,serif" font-size="14.00">isA</text>
</g>
<!-- ConsultantManager -->
<g id="node11" class="node">
<title>ConsultantManager</title>
<g id="a_node11"><a xlink:href="http://example.org/owl-client-relationship#EMMO_b9ee246e-f9d9-53e4-b71c-d433d4476f94" xlink:title="ConsultantManager">
<ellipse fill="#ffffcc" stroke="black" cx="783.94" cy="-192" rx="102.88" ry="18"/>
<text text-anchor="middle" x="783.94" y="-188.3" font-family="Times,serif" font-size="14.00">ConsultantManager</text>
</a>
</g>
</g>
<!-- ConsultantManager&#45;&gt;Person -->
<g id="edge3" class="edge">
<title>ConsultantManager&#45;&gt;Person</title>
<path fill="none" stroke="black" d="M803.7,-209.79C819.25,-223.02 841.07,-241.55 858.02,-255.97"/>
<polygon fill="none" stroke="black" points="856.02,-258.86 865.91,-262.67 860.56,-253.53 856.02,-258.86"/>
<text text-anchor="middle" x="850.94" y="-231.8" font-family="Times,serif" font-size="14.00">isA</text>
</g>
<!-- Treesa -->
<g id="node12" class="node">
<title>Treesa</title>
<g id="a_node12"><a xlink:href="http://example.org/owl-client-relationship#EMMO_a9817951-4720-5572-8941-ff9f85b0c4a1" xlink:title="Treesa">
<ellipse fill="#ffffcc" stroke="black" cx="502.94" cy="-18" rx="42.49" ry="18"/>
<text text-anchor="middle" x="502.94" y="-14.3" font-family="Times,serif" font-size="14.00">Treesa</text>
</a>
</g>
</g>
<!-- Treesa&#45;&gt;SINTEFOceanPerson -->
<g id="edge1" class="edge">
<title>Treesa&#45;&gt;SINTEFOceanPerson</title>
<path fill="none" stroke="black" d="M516.07,-35.31C526.23,-46.73 541.33,-61.26 557.94,-69 584.83,-81.52 651.63,-90.36 710.79,-96.02"/>
<polygon fill="none" stroke="black" points="710.69,-99.53 720.97,-96.97 711.34,-92.56 710.69,-99.53"/>
<text text-anchor="middle" x="568.94" y="-57.8" font-family="Times,serif" font-size="14.00">isA</text>
</g>
<!-- SINTEFOceanPerson&#45;&gt;SINTEFPerson -->
<g id="edge10" class="edge">
<title>SINTEFOceanPerson&#45;&gt;SINTEFPerson</title>
<path fill="none" stroke="black" d="M849.95,-122.39C876.9,-136.19 915.56,-155.98 944.43,-170.77"/>
<polygon fill="none" stroke="black" points="942.94,-173.94 953.44,-175.38 946.13,-167.71 942.94,-173.94"/>
<text text-anchor="middle" x="921.94" y="-144.8" font-family="Times,serif" font-size="14.00">isA</text>
</g>
<!-- Jesper -->
<g id="node14" class="node">
<title>Jesper</title>
<g id="a_node14"><a xlink:href="http://example.org/owl-client-relationship#EMMO_a6ceba78-3a54-5288-a8c0-8bc377e8bc4c" xlink:title="Jesper">
<ellipse fill="#ffffcc" stroke="black" cx="1257.94" cy="-18" rx="40.09" ry="18"/>
<text text-anchor="middle" x="1257.94" y="-14.3" font-family="Times,serif" font-size="14.00">Jesper</text>
</a>
</g>
</g>
<!-- Jesper&#45;&gt;SINTEFIndustryPerson -->
<g id="edge5" class="edge">
<title>Jesper&#45;&gt;SINTEFIndustryPerson</title>
<path fill="none" stroke="black" d="M1239.53,-34.2C1223.87,-47.12 1201.14,-65.87 1183.19,-80.69"/>
<polygon fill="none" stroke="black" points="1180.8,-78.12 1175.32,-87.19 1185.26,-83.52 1180.8,-78.12"/>
<text text-anchor="middle" x="1223.94" y="-57.8" font-family="Times,serif" font-size="14.00">isA</text>
</g>
<!-- SemioticEntity -->
<g id="node16" class="node">
<title>SemioticEntity</title>
<g id="a_node16"><a xlink:href="https://w3id.org/emmo#EMMO_b803f122_4acb_4064_9d71_c1e5fd091fc9" xlink:title="SemioticEntity">
<ellipse fill="#ffffcc" stroke="red" cx="883.94" cy="-453" rx="79.89" ry="18"/>
<text text-anchor="middle" x="883.94" y="-449.3" font-family="Times,serif" font-size="14.00">SemioticEntity</text>
</a>
</g>
</g>
<!-- Interpreter&#45;&gt;SemioticEntity -->
<g id="edge15" class="edge">
<title>Interpreter&#45;&gt;SemioticEntity</title>
<path fill="none" stroke="black" d="M883.94,-384.2C883.94,-395.84 883.94,-411.45 883.94,-424.76"/>
<polygon fill="none" stroke="black" points="880.44,-424.82 883.94,-434.82 887.44,-424.82 880.44,-424.82"/>
<text text-anchor="middle" x="894.94" y="-405.8" font-family="Times,serif" font-size="14.00">isA</text>
</g>
<!-- Sign -->
<g id="node17" class="node">
<title>Sign</title>
<g id="a_node17"><a xlink:href="https://w3id.org/emmo#EMMO_b21a56ed_f969_4612_a6ec_cb7766f7f31d" xlink:title="Sign">
<ellipse fill="#ffffcc" stroke="red" cx="594.94" cy="-18" rx="31.7" ry="18"/>
<text text-anchor="middle" x="594.94" y="-14.3" font-family="Times,serif" font-size="14.00">Sign</text>
</a>
</g>
</g>
<!-- Interpreter&#45;&gt;Sign -->
<g id="edge16" class="edge">
<title>Interpreter&#45;&gt;Sign</title>
<path fill="none" stroke="olivedrab" d="M902.5,-348.79C925.65,-326.69 959.38,-286.88 934.94,-261 910.95,-235.59 655.8,-245.47 620.94,-243 599.14,-241.46 243.73,-226.09 228.94,-210 218.11,-198.22 217.77,-185.46 228.94,-174 256.37,-145.87 908.52,-184.13 935.94,-156 957.35,-134.04 955.68,-109.6 934.94,-87 908.96,-58.69 800.76,-75.85 762.94,-69 705.56,-58.6 691.23,-54.55 635.94,-36 633.66,-35.23 631.33,-34.4 628.99,-33.53"/>
<polygon fill="olivedrab" stroke="olivedrab" points="620.72,-26.55 628.76,-33.45 618.18,-33.07 620.72,-26.55"/>
<text text-anchor="middle" x="338.94" y="-188.3" font-family="Times,serif" font-size="14.00">Inverse(isInterpretedBy) some</text>
</g>
<!-- Semiosis -->
<g id="node18" class="node">
<title>Semiosis</title>
<g id="a_node18"><a xlink:href="https://w3id.org/emmo#EMMO_008fd3b2_4013_451f_8827_52bceab11841" xlink:title="Semiosis">
<ellipse fill="#ffffcc" stroke="red" cx="696.94" cy="-18" rx="51.99" ry="18"/>
<text text-anchor="middle" x="696.94" y="-14.3" font-family="Times,serif" font-size="14.00">Semiosis</text>
</a>
</g>
</g>
<!-- Interpreter&#45;&gt;Semiosis -->
<g id="edge17" class="edge">
<title>Interpreter&#45;&gt;Semiosis</title>
<path fill="none" stroke="olivedrab" d="M920.03,-351.2C930.9,-345.79 942.24,-338.75 950.94,-330 973.21,-307.6 989.13,-284.42 967.94,-261 958.45,-250.5 470.44,-220.5 460.94,-210 450.21,-198.13 449.83,-185.51 460.94,-174 499.77,-133.75 920.11,-190.74 963.94,-156 988.18,-136.79 993.59,-110.02 972.94,-87 948.32,-59.54 843.53,-78.69 807.94,-69 781.65,-61.84 753.69,-49.21 732.41,-38.44"/>
<polygon fill="olivedrab" stroke="olivedrab" points="725.03,-30.69 732.31,-38.39 721.82,-36.91 725.03,-30.69"/>
<text text-anchor="middle" x="566.44" y="-188.3" font-family="Times,serif" font-size="14.00">Inverse(hasInterpreter) some</text>
</g>
</g>
</svg>
