<?xml version="1.0" encoding="UTF-8" standalone="no"?>
<!DOCTYPE svg PUBLIC "-//W3C//DTD SVG 1.1//EN"
 "http://www.w3.org/Graphics/SVG/1.1/DTD/svg11.dtd">
<!-- Generated by graphviz version 2.43.0 (0)
 -->
<!-- Title: %3 Pages: 1 -->
<svg width="1219pt" height="479pt"
 viewBox="0.00 0.00 1218.79 479.00" xmlns="http://www.w3.org/2000/svg" xmlns:xlink="http://www.w3.org/1999/xlink">
<g id="graph0" class="graph" transform="scale(1 1) rotate(0) translate(4 475)">
<title>%3</title>
<polygon fill="white" stroke="transparent" points="-4,4 -4,-475 1214.79,-475 1214.79,4 -4,4"/>
<!-- Sylvain -->
<g id="node1" class="node">
<title>Sylvain</title>
<g id="a_node1"><a xlink:href="http://example.org/owl-client-relationship#EMMO_dbca868b-e8ec-5b26-8929-e319db1c534f" xlink:title="Sylvain">
<ellipse fill="#ffffcc" stroke="black" cx="1165.94" cy="-18" rx="44.69" ry="18"/>
<text text-anchor="middle" x="1165.94" y="-14.3" font-family="Times,serif" font-size="14.00">Sylvain</text>
</a>
</g>
</g>
<!-- SINTEFIndustryPerson -->
<g id="node8" class="node">
<title>SINTEFIndustryPerson</title>
<g id="a_node8"><a xlink:href="http://example.org/owl-client-relationship#EMMO_b36d2d3b-e9b0-5909-9a8d-40fd3a1efaa1" xlink:title="SINTEFIndustryPerson">
<ellipse fill="#ffffcc" stroke="black" cx="928.94" cy="-105" rx="118.08" ry="18"/>
<text text-anchor="middle" x="928.94" y="-101.3" font-family="Times,serif" font-size="14.00">SINTEFIndustryPerson</text>
</a>
</g>
</g>
<!-- Sylvain&#45;&gt;SINTEFIndustryPerson -->
<g id="edge12" class="edge">
<title>Sylvain&#45;&gt;SINTEFIndustryPerson</title>
<path fill="none" stroke="black" d="M1133.49,-30.64C1094.67,-44.56 1029.11,-68.07 982.69,-84.72"/>
<polygon fill="none" stroke="black" points="981.33,-81.49 973.1,-88.16 983.69,-88.08 981.33,-81.49"/>
<text text-anchor="middle" x="1071.94" y="-57.8" font-family="Times,serif" font-size="14.00">isA</text>
</g>
<!-- SINTEFPerson -->
<g id="node2" class="node">
<title>SINTEFPerson</title>
<g id="a_node2"><a xlink:href="http://example.org/owl-client-relationship#EMMO_7e775797-9967-5bee-9698-f87a965d118e" xlink:title="SINTEFPerson">
<ellipse fill="#ffffcc" stroke="black" cx="759.94" cy="-192" rx="79.09" ry="18"/>
<text text-anchor="middle" x="759.94" y="-188.3" font-family="Times,serif" font-size="14.00">SINTEFPerson</text>
</a>
</g>
</g>
<!-- Person -->
<g id="node7" class="node">
<title>Person</title>
<g id="a_node7"><a xlink:href="http://example.org/owl-client-relationship#EMMO_3b652611-f435-5b44-88dd-9d3337e4e5a3" xlink:title="Person">
<ellipse fill="#ffffcc" stroke="black" stroke-width="2" cx="759.94" cy="-279" rx="42.49" ry="18"/>
<text text-anchor="middle" x="759.94" y="-275.3" font-family="Times,serif" font-size="14.00">Person</text>
</a>
</g>
</g>
<!-- SINTEFPerson&#45;&gt;Person -->
<g id="edge5" class="edge">
<title>SINTEFPerson&#45;&gt;Person</title>
<path fill="none" stroke="black" d="M759.94,-210.2C759.94,-221.84 759.94,-237.45 759.94,-250.76"/>
<polygon fill="none" stroke="black" points="756.44,-250.82 759.94,-260.82 763.44,-250.82 756.44,-250.82"/>
<text text-anchor="middle" x="770.94" y="-231.8" font-family="Times,serif" font-size="14.00">isA</text>
</g>
<!-- Petter -->
<g id="node3" class="node">
<title>Petter</title>
<g id="a_node3"><a xlink:href="http://example.org/owl-client-relationship#EMMO_f26059cd-fb61-537c-a625-2c8338367424" xlink:title="Petter">
<ellipse fill="#ffffcc" stroke="black" cx="588.94" cy="-18" rx="39.79" ry="18"/>
<text text-anchor="middle" x="588.94" y="-14.3" font-family="Times,serif" font-size="14.00">Petter</text>
</a>
</g>
</g>
<!-- SINTEFOceanPerson -->
<g id="node12" class="node">
<title>SINTEFOceanPerson</title>
<g id="a_node12"><a xlink:href="http://example.org/owl-client-relationship#EMMO_dcafb1c6-5b23-5850-a9e3-838e73b395e3" xlink:title="SINTEFOceanPerson">
<ellipse fill="#ffffcc" stroke="black" cx="598.94" cy="-105" rx="107.78" ry="18"/>
<text text-anchor="middle" x="598.94" y="-101.3" font-family="Times,serif" font-size="14.00">SINTEFOceanPerson</text>
</a>
</g>
</g>
<!-- Petter&#45;&gt;SINTEFOceanPerson -->
<g id="edge13" class="edge">
<title>Petter&#45;&gt;SINTEFOceanPerson</title>
<path fill="none" stroke="black" d="M590.97,-36.2C592.34,-47.84 594.17,-63.45 595.74,-76.76"/>
<polygon fill="none" stroke="black" points="592.28,-77.3 596.92,-86.82 599.23,-76.48 592.28,-77.3"/>
<text text-anchor="middle" x="605.94" y="-57.8" font-family="Times,serif" font-size="14.00">isA</text>
</g>
<!-- Thomas -->
<g id="node4" class="node">
<title>Thomas</title>
<g id="a_node4"><a xlink:href="http://example.org/owl-client-relationship#EMMO_e9a892e3-4212-52b1-98da-b91c2a32c965" xlink:title="Thomas">
<ellipse fill="#ffffcc" stroke="black" cx="692.94" cy="-18" rx="46.59" ry="18"/>
<text text-anchor="middle" x="692.94" y="-14.3" font-family="Times,serif" font-size="14.00">Thomas</text>
</a>
</g>
</g>
<!-- Thomas&#45;&gt;SINTEFOceanPerson -->
<g id="edge3" class="edge">
<title>Thomas&#45;&gt;SINTEFOceanPerson</title>
<path fill="none" stroke="black" d="M675.26,-34.99C661.09,-47.8 641.01,-65.96 625,-80.44"/>
<polygon fill="none" stroke="black" points="622.58,-77.91 617.51,-87.21 627.27,-83.1 622.58,-77.91"/>
<text text-anchor="middle" x="662.94" y="-57.8" font-family="Times,serif" font-size="14.00">isA</text>
</g>
<!-- Consultant -->
<g id="node5" class="node">
<title>Consultant</title>
<g id="a_node5"><a xlink:href="http://example.org/owl-client-relationship#EMMO_4b473939-6d2a-5342-a4da-4218c05009cb" xlink:title="Consultant">
<ellipse fill="#ffffcc" stroke="black" cx="918.94" cy="-192" rx="61.99" ry="18"/>
<text text-anchor="middle" x="918.94" y="-188.3" font-family="Times,serif" font-size="14.00">Consultant</text>
</a>
</g>
</g>
<!-- Consultant&#45;&gt;Person -->
<g id="edge11" class="edge">
<title>Consultant&#45;&gt;Person</title>
<path fill="none" stroke="black" d="M890.52,-208.2C863.52,-222.63 822.88,-244.35 794.13,-259.73"/>
<polygon fill="none" stroke="black" points="792.41,-256.68 785.24,-264.48 795.71,-262.85 792.41,-256.68"/>
<text text-anchor="middle" x="860.94" y="-231.8" font-family="Times,serif" font-size="14.00">isA</text>
</g>
<!-- BjornTore -->
<g id="node6" class="node">
<title>BjornTore</title>
<g id="a_node6"><a xlink:href="http://example.org/owl-client-relationship#EMMO_71f7ecb6-a711-5787-b5ec-d764eaed71e8" xlink:title="BjornTore">
<ellipse fill="#ffffcc" stroke="black" cx="813.94" cy="-18" rx="56.59" ry="18"/>
<text text-anchor="middle" x="813.94" y="-14.3" font-family="Times,serif" font-size="14.00">BjornTore</text>
</a>
</g>
</g>
<!-- BjornTore&#45;&gt;SINTEFIndustryPerson -->
<g id="edge2" class="edge">
<title>BjornTore&#45;&gt;SINTEFIndustryPerson</title>
<path fill="none" stroke="black" d="M835.3,-34.79C852.92,-47.81 878.16,-66.46 897.99,-81.12"/>
<polygon fill="none" stroke="black" points="896,-84 906.12,-87.13 900.16,-78.37 896,-84"/>
<text text-anchor="middle" x="889.94" y="-57.8" font-family="Times,serif" font-size="14.00">isA</text>
</g>
<!-- Interpreter -->
<g id="node14" class="node">
<title>Interpreter</title>
<g id="a_node14"><a xlink:href="https://w3id.org/emmo#EMMO_0527413c_b286_4e9c_b2d0_03fb2a038dee" xlink:title="Interpreter">
<ellipse fill="#ffffcc" stroke="red" cx="759.94" cy="-366" rx="63.09" ry="18"/>
<text text-anchor="middle" x="759.94" y="-362.3" font-family="Times,serif" font-size="14.00">Interpreter</text>
</a>
</g>
</g>
<!-- Person&#45;&gt;Interpreter -->
<g id="edge6" class="edge">
<title>Person&#45;&gt;Interpreter</title>
<path fill="none" stroke="black" d="M759.94,-297.2C759.94,-308.84 759.94,-324.45 759.94,-337.76"/>
<polygon fill="none" stroke="black" points="756.44,-337.82 759.94,-347.82 763.44,-337.82 756.44,-337.82"/>
<text text-anchor="middle" x="770.94" y="-318.8" font-family="Times,serif" font-size="14.00">isA</text>
</g>
<!-- SINTEFIndustryPerson&#45;&gt;SINTEFPerson -->
<g id="edge7" class="edge">
<title>SINTEFIndustryPerson&#45;&gt;SINTEFPerson</title>
<path fill="none" stroke="black" d="M896.36,-122.39C868.92,-136.19 829.56,-155.98 800.17,-170.77"/>
<polygon fill="none" stroke="black" points="798.36,-167.76 791,-175.38 801.51,-174.01 798.36,-167.76"/>
<text text-anchor="middle" x="865.94" y="-144.8" font-family="Times,serif" font-size="14.00">isA</text>
</g>
<!-- Treesa -->
<g id="node9" class="node">
<title>Treesa</title>
<g id="a_node9"><a xlink:href="http://example.org/owl-client-relationship#EMMO_a9817951-4720-5572-8941-ff9f85b0c4a1" xlink:title="Treesa">
<ellipse fill="#ffffcc" stroke="black" cx="284.94" cy="-18" rx="42.49" ry="18"/>
<text text-anchor="middle" x="284.94" y="-14.3" font-family="Times,serif" font-size="14.00">Treesa</text>
</a>
</g>
</g>
<!-- Treesa&#45;&gt;SINTEFOceanPerson -->
<g id="edge1" class="edge">
<title>Treesa&#45;&gt;SINTEFOceanPerson</title>
<path fill="none" stroke="black" d="M298.07,-35.31C308.23,-46.72 323.33,-61.26 339.94,-69 366.72,-81.48 433.27,-90.32 492.2,-95.99"/>
<polygon fill="none" stroke="black" points="492.06,-99.49 502.34,-96.94 492.71,-92.52 492.06,-99.49"/>
<text text-anchor="middle" x="350.94" y="-57.8" font-family="Times,serif" font-size="14.00">isA</text>
</g>
<!-- ClientManager -->
<g id="node10" class="node">
<title>ClientManager</title>
<g id="a_node10"><a xlink:href="http://example.org/owl-client-relationship#EMMO_0faf89e8-8210-5c7a-b85c-b2d51e896b76" xlink:title="ClientManager">
<ellipse fill="#ffffcc" stroke="black" cx="79.94" cy="-192" rx="79.89" ry="18"/>
<text text-anchor="middle" x="79.94" y="-188.3" font-family="Times,serif" font-size="14.00">ClientManager</text>
</a>
</g>
</g>
<!-- ClientManager&#45;&gt;Person -->
<g id="edge10" class="edge">
<title>ClientManager&#45;&gt;Person</title>
<path fill="none" stroke="black" d="M88.62,-210.11C95.44,-221.59 106.11,-235.88 119.94,-243 171.52,-269.55 563.73,-276.07 707.41,-277.57"/>
<polygon fill="none" stroke="black" points="707.69,-281.08 717.72,-277.68 707.76,-274.08 707.69,-281.08"/>
<text text-anchor="middle" x="130.94" y="-231.8" font-family="Times,serif" font-size="14.00">isA</text>
</g>
<!-- Jesper -->
<g id="node11" class="node">
<title>Jesper</title>
<g id="a_node11"><a xlink:href="http://example.org/owl-client-relationship#EMMO_a6ceba78-3a54-5288-a8c0-8bc377e8bc4c" xlink:title="Jesper">
<ellipse fill="#ffffcc" stroke="black" cx="928.94" cy="-18" rx="40.09" ry="18"/>
<text text-anchor="middle" x="928.94" y="-14.3" font-family="Times,serif" font-size="14.00">Jesper</text>
</a>
</g>
</g>
<!-- Jesper&#45;&gt;SINTEFIndustryPerson -->
<g id="edge4" class="edge">
<title>Jesper&#45;&gt;SINTEFIndustryPerson</title>
<path fill="none" stroke="black" d="M928.94,-36.2C928.94,-47.84 928.94,-63.45 928.94,-76.76"/>
<polygon fill="none" stroke="black" points="925.44,-76.82 928.94,-86.82 932.44,-76.82 925.44,-76.82"/>
<text text-anchor="middle" x="939.94" y="-57.8" font-family="Times,serif" font-size="14.00">isA</text>
</g>
<!-- SINTEFOceanPerson&#45;&gt;SINTEFPerson -->
<g id="edge8" class="edge">
<title>SINTEFOceanPerson&#45;&gt;SINTEFPerson</title>
<path fill="none" stroke="black" d="M629.99,-122.39C655.93,-136.09 693.06,-155.69 720.99,-170.44"/>
<polygon fill="none" stroke="black" points="719.61,-173.66 730.08,-175.24 722.88,-167.47 719.61,-173.66"/>
<text text-anchor="middle" x="700.94" y="-144.8" font-family="Times,serif" font-size="14.00">isA</text>
</g>
<!-- Francesca -->
<g id="node13" class="node">
<title>Francesca</title>
<g id="a_node13"><a xlink:href="http://example.org/owl-client-relationship#EMMO_39c5d034-c6b5-572c-9a79-4eb0e332e7fb" xlink:title="Francesca">
<ellipse fill="#ffffcc" stroke="black" cx="1044.94" cy="-18" rx="57.69" ry="18"/>
<text text-anchor="middle" x="1044.94" y="-14.3" font-family="Times,serif" font-size="14.00">Francesca</text>
</a>
</g>
</g>
<!-- Francesca&#45;&gt;SINTEFIndustryPerson -->
<g id="edge9" class="edge">
<title>Francesca&#45;&gt;SINTEFIndustryPerson</title>
<path fill="none" stroke="black" d="M1023.4,-34.79C1005.62,-47.81 980.17,-66.46 960.17,-81.12"/>
<polygon fill="none" stroke="black" points="957.96,-78.4 951.96,-87.13 962.1,-84.04 957.96,-78.4"/>
<text text-anchor="middle" x="1004.94" y="-57.8" font-family="Times,serif" font-size="14.00">isA</text>
</g>
<!-- SemioticEntity -->
<g id="node15" class="node">
<title>SemioticEntity</title>
<g id="a_node15"><a xlink:href="https://w3id.org/emmo#EMMO_b803f122_4acb_4064_9d71_c1e5fd091fc9" xlink:title="SemioticEntity">
<ellipse fill="#ffffcc" stroke="red" cx="759.94" cy="-453" rx="79.89" ry="18"/>
<text text-anchor="middle" x="759.94" y="-449.3" font-family="Times,serif" font-size="14.00">SemioticEntity</text>
</a>
</g>
</g>
<!-- Interpreter&#45;&gt;SemioticEntity -->
<g id="edge14" class="edge">
<title>Interpreter&#45;&gt;SemioticEntity</title>
<path fill="none" stroke="black" d="M759.94,-384.2C759.94,-395.84 759.94,-411.45 759.94,-424.76"/>
<polygon fill="none" stroke="black" points="756.44,-424.82 759.94,-434.82 763.44,-424.82 756.44,-424.82"/>
<text text-anchor="middle" x="770.94" y="-405.8" font-family="Times,serif" font-size="14.00">isA</text>
</g>
<!-- Sign -->
<g id="node16" class="node">
<title>Sign</title>
<g id="a_node16"><a xlink:href="https://w3id.org/emmo#EMMO_b21a56ed_f969_4612_a6ec_cb7766f7f31d" xlink:title="Sign">
<ellipse fill="#ffffcc" stroke="red" cx="376.94" cy="-18" rx="31.7" ry="18"/>
<text text-anchor="middle" x="376.94" y="-14.3" font-family="Times,serif" font-size="14.00">Sign</text>
</a>
</g>
</g>
<!-- Interpreter&#45;&gt;Sign -->
<g id="edge15" class="edge">
<title>Interpreter&#45;&gt;Sign</title>
<path fill="none" stroke="olivedrab" d="M778.82,-348.48C801.88,-326.38 835.01,-286.95 810.94,-261 792.91,-241.55 599.37,-245.27 572.94,-243 496.43,-236.44 280.59,-266.84 228.94,-210 218.18,-198.16 217.84,-185.52 228.94,-174 266.12,-135.4 670.97,-191.69 710.94,-156 733.88,-135.52 736.51,-109.85 715.94,-87 690.38,-58.6 582.54,-75.82 544.94,-69 487.56,-58.59 473.23,-54.55 417.94,-36 415.66,-35.23 413.33,-34.4 410.99,-33.53"/>
<polygon fill="olivedrab" stroke="olivedrab" points="402.72,-26.55 410.76,-33.45 400.18,-33.07 402.72,-26.55"/>
<text text-anchor="middle" x="338.94" y="-188.3" font-family="Times,serif" font-size="14.00">Inverse(isInterpretedBy) some</text>
</g>
<!-- Semiosis -->
<g id="node17" class="node">
<title>Semiosis</title>
<g id="a_node17"><a xlink:href="https://w3id.org/emmo#EMMO_008fd3b2_4013_451f_8827_52bceab11841" xlink:title="Semiosis">
<ellipse fill="#ffffcc" stroke="red" cx="478.94" cy="-18" rx="51.99" ry="18"/>
<text text-anchor="middle" x="478.94" y="-14.3" font-family="Times,serif" font-size="14.00">Semiosis</text>
</a>
</g>
</g>
<!-- Interpreter&#45;&gt;Semiosis -->
<g id="edge16" class="edge">
<title>Interpreter&#45;&gt;Semiosis</title>
<path fill="none" stroke="olivedrab" d="M796.03,-351.2C806.9,-345.79 818.24,-338.75 826.94,-330 849.21,-307.6 864.75,-284.76 843.94,-261 829.8,-244.85 475.08,-226.15 460.94,-210 450.4,-197.96 450,-185.67 460.94,-174 503.28,-128.83 688.92,-192.48 738.94,-156 764.16,-137.61 772.75,-110.25 751.94,-87 727.79,-60.01 624.88,-78.55 589.94,-69 563.66,-61.81 535.7,-49.18 514.41,-38.42"/>
<polygon fill="olivedrab" stroke="olivedrab" points="507.04,-30.67 514.32,-38.37 503.83,-36.89 507.04,-30.67"/>
<text text-anchor="middle" x="566.44" y="-188.3" font-family="Times,serif" font-size="14.00">Inverse(hasInterpreter) some</text>
</g>
</g>
</svg>
