<?xml version="1.0" encoding="UTF-8" standalone="no"?>
<!DOCTYPE svg PUBLIC "-//W3C//DTD SVG 1.1//EN"
 "http://www.w3.org/Graphics/SVG/1.1/DTD/svg11.dtd">
<!-- Generated by graphviz version 2.43.0 (0)
 -->
<!-- Title: %3 Pages: 1 -->
<svg width="536pt" height="305pt"
 viewBox="0.00 0.00 535.93 305.00" xmlns="http://www.w3.org/2000/svg" xmlns:xlink="http://www.w3.org/1999/xlink">
<g id="graph0" class="graph" transform="scale(1 1) rotate(0) translate(4 301)">
<title>%3</title>
<polygon fill="white" stroke="transparent" points="-4,4 -4,-301 531.93,-301 531.93,4 -4,4"/>
<!-- Consultant -->
<g id="node1" class="node">
<title>Consultant</title>
<g id="a_node1"><a xlink:href="http://example.org/owl-client-relationship#Consultant" xlink:title="Consultant">
<ellipse fill="#ffffcc" stroke="black" cx="119.93" cy="-18" rx="61.99" ry="18"/>
<text text-anchor="middle" x="119.93" y="-14.3" font-family="Times,serif" font-size="14.00">Consultant</text>
</a>
</g>
</g>
<!-- Person -->
<g id="node2" class="node">
<title>Person</title>
<g id="a_node2"><a xlink:href="http://example.org/owl-client-relationship#Person" xlink:title="Person">
<ellipse fill="#ffffcc" stroke="black" stroke-width="2" cx="119.93" cy="-192" rx="42.49" ry="18"/>
<text text-anchor="middle" x="119.93" y="-188.3" font-family="Times,serif" font-size="14.00">Person</text>
</a>
</g>
</g>
<!-- Consultant&#45;&gt;Person -->
<g id="edge4" class="edge">
<title>Consultant&#45;&gt;Person</title>
<path fill="none" stroke="black" d="M79.03,-31.62C53.07,-42 21.52,-59.55 5.93,-87 -1.98,-100.91 -1.98,-109.09 5.93,-123 21.01,-149.56 51.04,-166.85 76.5,-177.35"/>
<polygon fill="none" stroke="black" points="75.4,-180.67 85.99,-181.04 77.94,-174.15 75.4,-180.67"/>
<text text-anchor="middle" x="16.93" y="-101.3" font-family="Times,serif" font-size="14.00">isA</text>
</g>
<!-- Client Manager -->
<g id="node3" class="node">
<title>Client Manager</title>
<g id="a_node3"><a xlink:href="http://example.org/owl-client-relationship#ClientManager" xlink:title="Client Manager">
<ellipse fill="#ffffcc" stroke="black" cx="119.93" cy="-105" rx="83.39" ry="18"/>
<text text-anchor="middle" x="119.93" y="-101.3" font-family="Times,serif" font-size="14.00">Client Manager</text>
</a>
</g>
</g>
<!-- Consultant&#45;&gt;Client Manager -->
<g id="edge6" class="edge">
<title>Consultant&#45;&gt;Client Manager</title>
<path fill="none" stroke="black" d="M119.93,-36.2C119.93,-47.84 119.93,-63.45 119.93,-76.76"/>
<polygon fill="black" stroke="black" points="116.43,-76.82 119.93,-86.82 123.43,-76.82 116.43,-76.82"/>
<text text-anchor="middle" x="209.43" y="-57.8" font-family="Times,serif" font-size="14.00">has client manager some</text>
</g>
<!-- Consultant Manager -->
<g id="node4" class="node">
<title>Consultant Manager</title>
<g id="a_node4"><a xlink:href="http://example.org/owl-client-relationship#ConsultantManager" xlink:title="Consultant Manager">
<ellipse fill="#ffffcc" stroke="black" cx="326.93" cy="-105" rx="105.88" ry="18"/>
<text text-anchor="middle" x="326.93" y="-101.3" font-family="Times,serif" font-size="14.00">Consultant Manager</text>
</a>
</g>
</g>
<!-- Consultant&#45;&gt;Consultant Manager -->
<g id="edge5" class="edge">
<title>Consultant&#45;&gt;Consultant Manager</title>
<path fill="none" stroke="black" d="M177.8,-24.54C223.51,-29.91 282.69,-39.42 301.93,-54 309.57,-59.79 315.04,-68.56 318.87,-77.15"/>
<polygon fill="black" stroke="black" points="315.65,-78.54 322.53,-86.6 322.18,-76.01 315.65,-78.54"/>
<text text-anchor="middle" x="420.93" y="-57.8" font-family="Times,serif" font-size="14.00">has consultant manager some</text>
</g>
<!-- Thing -->
<g id="node5" class="node">
<title>Thing</title>
<g id="a_node5"><a xlink:href="http://www.w3.org/2002/07/owl#Thing" xlink:title="Thing">
<ellipse fill="#ffffcc" stroke="red" cx="119.93" cy="-279" rx="37.09" ry="18"/>
<text text-anchor="middle" x="119.93" y="-275.3" font-family="Times,serif" font-size="14.00">Thing</text>
</a>
</g>
</g>
<!-- Person&#45;&gt;Thing -->
<g id="edge3" class="edge">
<title>Person&#45;&gt;Thing</title>
<path fill="none" stroke="black" d="M119.93,-210.2C119.93,-221.84 119.93,-237.45 119.93,-250.76"/>
<polygon fill="none" stroke="black" points="116.43,-250.82 119.93,-260.82 123.43,-250.82 116.43,-250.82"/>
<text text-anchor="middle" x="130.93" y="-231.8" font-family="Times,serif" font-size="14.00">isA</text>
</g>
<!-- Client Manager&#45;&gt;Person -->
<g id="edge1" class="edge">
<title>Client Manager&#45;&gt;Person</title>
<path fill="none" stroke="black" d="M119.93,-123.2C119.93,-134.84 119.93,-150.45 119.93,-163.76"/>
<polygon fill="none" stroke="black" points="116.43,-163.82 119.93,-173.82 123.43,-163.82 116.43,-163.82"/>
<text text-anchor="middle" x="130.93" y="-144.8" font-family="Times,serif" font-size="14.00">isA</text>
</g>
<!-- Consultant Manager&#45;&gt;Person -->
<g id="edge2" class="edge">
<title>Consultant Manager&#45;&gt;Person</title>
<path fill="none" stroke="black" d="M288.48,-121.79C251.45,-136.99 195.74,-159.87 158.63,-175.11"/>
<polygon fill="none" stroke="black" points="157.07,-171.96 149.15,-179 159.73,-178.44 157.07,-171.96"/>
<text text-anchor="middle" x="245.93" y="-144.8" font-family="Times,serif" font-size="14.00">isA</text>
</g>
</g>
</svg>
